# xmcd
#
# Track frame offsets: 
#        150
#        19855
#        35691
#        48899
#        67105
#        88625
#        105771
#        127907
#        148617
#        164956
#        182347
#        198687
#
# Disc length: 2792 seconds
#
# Revision: 0
# Processed by: cddbd v1.5.2PL0 Copyright (c) Steve Scherf et al.
# Submitted via: ExactAudioCopy v0.99pb5
#
DISCID=a40ae60c
DTITLE=Ellen Ten Damme - Impossible Girl 
DYEAR=2007
DGENRE=Blues
TTITLE0=Old Jeans
TTITLE1=Stay
TTITLE2=Impossible Girl
TTITLE3=Rabbit
TTITLE4=Stepping Out
TTITLE5=Yes I Would
TTITLE6=Hey Now
TTITLE7=Moon
TTITLE8=Singer Of The Band
TTITLE9=Sweet 'N Humble
TTITLE10=After Us
TTITLE11=In Your Eyes
EXTD=
EXTT0=
EXTT1=
EXTT2=
EXTT3=
EXTT4=
EXTT5=
EXTT6=
EXTT7=
EXTT8=
EXTT9=
EXTT10=
EXTT11=
PLAYORDER=
